<svg version="1.1" xmlns="http://www.w3.org/2000/svg" xmlns:xlink="http://www.w3.org/1999/xlink" width="882" height="403"><defs/><g><g transform="translate(-14,-70) scale(1,1)"><path fill="#ffffff" stroke="none" d="M 91.45522833806818 276.23 C 91.45522833806818 270.027841696 96.42047130883182 265 102.54541015625 265 C 108.67034900366818 265 113.63559197443182 270.027841696 113.63559197443182 276.23 C 113.63559197443182 282.43215830400004 108.67034900366818 287.46 102.54541015625 287.46 C 96.42047130883182 287.46 91.45522833806818 282.43215830400004 91.45522833806818 276.23 Z"/></g><g transform="translate(-14,-70) scale(1,1)"><path fill="none" stroke="#000000" d="M 91.45522833806818 276.23 C 91.45522833806818 270.027841696 96.42047130883182 265 102.54541015625 265 C 108.67034900366818 265 113.63559197443182 270.027841696 113.63559197443182 276.23 C 113.63559197443182 282.43215830400004 108.67034900366818 287.46 102.54541015625 287.46 C 96.42047130883182 287.46 91.45522833806818 282.43215830400004 91.45522833806818 276.23 Z" stroke-miterlimit="10"/></g><g transform="translate(-14,-70) scale(1,1)"><path fill="none" stroke="#000000" d="M 102.54541015625 287.46 L 102.54541015625 309.54" stroke-miterlimit="10"/></g><g transform="translate(-14,-70) scale(1,1)"><path fill="none" stroke="#000000" d="M 90.80286470170455 295.74 L 114.28795561079545 295.74" stroke-miterlimit="10"/></g><g transform="translate(-14,-70) scale(1,1)"><path fill="none" stroke="#000000" d="M 102.54541015625 309.54 L 86.23631924715909 332" stroke-miterlimit="10"/></g><g transform="translate(-14,-70) scale(1,1)"><path fill="none" stroke="#000000" d="M 102.54541015625 309.54 L 118.85450106534091 332" stroke-miterlimit="10"/></g><g transform="translate(-14,-70) scale(1,1)"><g><path fill="none" stroke="none"/><text fill="#000000" stroke="none" font-family="Arial" font-size="13px" font-style="normal" font-weight="bold" text-decoration="none" x="83.759521484375" y="352.5">Actor1</text></g></g><g transform="translate(-14,-70) scale(1,1)"><path fill="#C0C0C0" stroke="none" d="M 671 114.5 C 671 99.312168 720.6963872 87 782 87 C 843.3036128 87 893 99.312168 893 114.5 C 893 129.68783200000001 843.3036128 142 782 142 C 720.6963872 142 671 129.68783200000001 671 114.5 Z" opacity="0.2"/></g><g transform="translate(-14,-70) scale(1,1)"><path fill="#ffffff" stroke="none" d="M 664 107.5 C 664 92.312168 713.6963872 80 775 80 C 836.3036128 80 886 92.312168 886 107.5 C 886 122.687832 836.3036128 135 775 135 C 713.6963872 135 664 122.687832 664 107.5 Z"/></g><g transform="translate(-14,-70) scale(1,1)"><path fill="none" stroke="#000000" d="M 664 107.5 C 664 92.312168 713.6963872 80 775 80 C 836.3036128 80 886 92.312168 886 107.5 C 886 122.687832 836.3036128 135 775 135 C 713.6963872 135 664 122.687832 664 107.5 Z" stroke-miterlimit="10"/></g><g transform="translate(-14,-70) scale(1,1)"><g><path fill="none" stroke="none"/><text fill="#000000" stroke="none" font-family="Arial" font-size="13px" font-style="normal" font-weight="bold" text-decoration="none" x="725.1328125" y="114.5">Entrer un pseudo</text></g></g><g transform="translate(-14,-70) scale(1,1)"><path fill="#C0C0C0" stroke="none" d="M 391 442.5 C 391 427.312168 440.6963872 415 502 415 C 563.3036128 415 613 427.312168 613 442.5 C 613 457.687832 563.3036128 470 502 470 C 440.6963872 470 391 457.687832 391 442.5 Z" opacity="0.2"/></g><g transform="translate(-14,-70) scale(1,1)"><path fill="#ffffff" stroke="none" d="M 384 435.5 C 384 420.312168 433.6963872 408 495 408 C 556.3036128 408 606 420.312168 606 435.5 C 606 450.687832 556.3036128 463 495 463 C 433.6963872 463 384 450.687832 384 435.5 Z"/></g><g transform="translate(-14,-70) scale(1,1)"><path fill="none" stroke="#000000" d="M 384 435.5 C 384 420.312168 433.6963872 408 495 408 C 556.3036128 408 606 420.312168 606 435.5 C 606 450.687832 556.3036128 463 495 463 C 433.6963872 463 384 450.687832 384 435.5 Z" stroke-miterlimit="10"/></g><g transform="translate(-14,-70) scale(1,1)"><g><path fill="none" stroke="none"/><text fill="#000000" stroke="none" font-family="Arial" font-size="13px" font-style="normal" font-weight="bold" text-decoration="none" x="475.49365234375" y="442.5">Quitter</text></g></g><g transform="translate(-14,-70) scale(1,1)"><path fill="none" stroke="#000000" d="M 182 336 L 406 407" stroke-miterlimit="10"/></g><g transform="translate(-14,-70) scale(1,1)"><path fill="none" stroke="#000000" d="M 395.04041922724684 407.94211957070155 L 406 407 L 397.5842269794929 399.9165852537561" stroke-miterlimit="10"/></g><g transform="translate(-14,-70) scale(1,1)"><path fill="#C0C0C0" stroke="none" d="M 311 162.5 C 311 147.31216799999999 360.6963872 135 422 135 C 483.3036128 135 533 147.31216799999999 533 162.5 C 533 177.68783200000001 483.3036128 190 422 190 C 360.6963872 190 311 177.68783200000001 311 162.5 Z" opacity="0.2"/></g><g transform="translate(-14,-70) scale(1,1)"><path fill="#ffffff" stroke="none" d="M 304 155.5 C 304 140.31216799999999 353.6963872 128 415 128 C 476.3036128 128 526 140.31216799999999 526 155.5 C 526 170.68783200000001 476.3036128 183 415 183 C 353.6963872 183 304 170.68783200000001 304 155.5 Z"/></g><g transform="translate(-14,-70) scale(1,1)"><path fill="none" stroke="#000000" d="M 304 155.5 C 304 140.31216799999999 353.6963872 128 415 128 C 476.3036128 128 526 140.31216799999999 526 155.5 C 526 170.68783200000001 476.3036128 183 415 183 C 353.6963872 183 304 170.68783200000001 304 155.5 Z" stroke-miterlimit="10"/></g><g transform="translate(-14,-70) scale(1,1)"><g><path fill="none" stroke="none"/><text fill="#000000" stroke="none" font-family="Arial" font-size="13px" font-style="normal" font-weight="bold" text-decoration="none" x="398.740478515625" y="162.5">Jouer</text></g></g><g transform="translate(-14,-70) scale(1,1)"><path fill="none" stroke="#000000" d="M 182 271 L 357 184" stroke-miterlimit="10"/></g><g transform="translate(-14,-70) scale(1,1)"><path fill="none" stroke="#000000" d="M 349.7737837614372 192.29347929843266 L 357 184 L 346.0259180438399 184.75466894694387" stroke-miterlimit="10"/></g><g transform="translate(-14,-70) scale(1,1)"><path fill="#C0C0C0" stroke="none" d="M 407 298.5 C 407 283.312168 456.6963872 271 518 271 C 579.3036128 271 629 283.312168 629 298.5 C 629 313.687832 579.3036128 326 518 326 C 456.6963872 326 407 313.687832 407 298.5 Z" opacity="0.2"/></g><g transform="translate(-14,-70) scale(1,1)"><path fill="#ffffff" stroke="none" d="M 400 291.5 C 400 276.312168 449.6963872 264 511 264 C 572.3036128 264 622 276.312168 622 291.5 C 622 306.687832 572.3036128 319 511 319 C 449.6963872 319 400 306.687832 400 291.5 Z"/></g><g transform="translate(-14,-70) scale(1,1)"><path fill="none" stroke="#000000" d="M 400 291.5 C 400 276.312168 449.6963872 264 511 264 C 572.3036128 264 622 276.312168 622 291.5 C 622 306.687832 572.3036128 319 511 319 C 449.6963872 319 400 306.687832 400 291.5 Z" stroke-miterlimit="10"/></g><g transform="translate(-14,-70) scale(1,1)"><g><path fill="none" stroke="none"/><text fill="#000000" stroke="none" font-family="Arial" font-size="13px" font-style="normal" font-weight="bold" text-decoration="none" x="466.563232421875" y="298.5">Consulter Stats</text></g></g><g transform="translate(-14,-70) scale(1,1)"><path fill="none" stroke="#000000" d="M 182 307 L 399 296" stroke-miterlimit="10"/></g><g transform="translate(-14,-70) scale(1,1)"><path fill="none" stroke="#000000" d="M 389.06346911044074 300.7186177934682 L 399 296 L 388.6372449869342 292.3103782661119" stroke-miterlimit="10"/></g><g transform="translate(-14,-70) scale(1,1)"><path fill="none" stroke="#000000" d="M 527 140 L 663 122" stroke-miterlimit="10" stroke-dasharray="3"/></g><g transform="translate(-14,-70) scale(1,1)"><path fill="none" stroke="#000000" d="M 653.4775092771807 127.50655703991359 L 663 122 L 652.3728584121951 119.16030606002197" stroke-miterlimit="10"/></g><g transform="translate(-14,-70) scale(1,1)"><g><path fill="none" stroke="none"/><text fill="#000000" stroke="none" font-family="Arial" font-size="13px" font-style="normal" font-weight="normal" text-decoration="none" x="563.5" y="107.5">«include»</text></g></g></g></svg>